<?xml version="1.0" standalone="no"?>
<!DOCTYPE svg PUBLIC "-//W3C//DTD SVG 20010904//EN"
 "http://www.w3.org/TR/2001/REC-SVG-20010904/DTD/svg10.dtd">
<svg version="1.0" xmlns="http://www.w3.org/2000/svg"
 width="146.000000pt" height="146.000000pt" viewBox="0 0 146.000000 146.000000"
 preserveAspectRatio="xMidYMid meet">
<metadata>
Created by potrace 1.14, written by Peter Selinger 2001-2017
</metadata>
<g transform="translate(0.000000,146.000000) scale(0.100000,-0.100000)"
fill="#000000" stroke="none">
<path d="M297 1085 c-100 -27 -193 -110 -239 -211 -31 -69 -31 -217 0 -287 30
-66 115 -153 182 -185 49 -24 67 -27 160 -27 91 0 111 3 150 24 67 36 107 71
141 124 31 47 43 59 33 33 -3 -8 3 -17 14 -20 14 -5 29 2 50 24 29 29 34 30
116 30 87 0 116 -12 116 -46 0 -10 8 -14 23 -12 19 3 22 9 21 46 0 27 -7 47
-17 55 -16 11 -16 18 -2 87 12 57 22 79 40 93 14 10 25 25 25 33 0 11 -24 14
-124 14 -115 0 -124 -1 -129 -20 -3 -12 1 -24 11 -29 14 -8 11 -19 -23 -86
-24 -46 -49 -82 -63 -88 -13 -6 -30 -22 -38 -36 -9 -16 -13 -18 -8 -6 19 58
25 107 21 167 -19 228 -240 384 -460 323z m-27 -244 c0 -5 -8 -12 -19 -16 -19
-6 -36 -58 -25 -76 3 -5 25 -9 49 -9 42 0 44 1 54 38 7 24 7 38 1 40 -6 2 -10
10 -10 18 0 10 14 14 55 14 54 0 73 -13 36 -25 -14 -4 -23 -25 -36 -83 -9 -42
-19 -85 -21 -95 -3 -10 1 -20 10 -23 34 -13 13 -24 -44 -24 -58 0 -79 13 -42
24 17 6 45 80 34 91 -3 3 -25 5 -48 5 -33 0 -46 -5 -54 -19 -13 -25 -13 -68 0
-76 25 -15 5 -25 -50 -25 -58 0 -79 13 -41 25 20 6 24 15 46 119 11 47 12 73
5 80 -20 20 -9 26 45 26 30 0 55 -4 55 -9z m360 -1 c26 -14 50 -62 50 -101 0
-43 -36 -104 -75 -125 -45 -24 -128 -15 -155 16 -23 26 -16 48 9 26 51 -46
117 -38 144 18 8 19 13 37 10 40 -4 3 -26 6 -50 6 -23 0 -43 5 -43 10 0 6 23
10 50 10 47 0 50 2 50 25 0 14 -9 34 -20 45 -30 30 -63 25 -100 -16 -37 -43
-54 -34 -34 16 14 34 15 35 79 38 36 1 74 -2 85 -8z m360 -44 c0 -7 -4 -26 -9
-42 -5 -16 -14 -48 -20 -71 -12 -42 -12 -43 -56 -43 l-45 0 42 85 c35 69 47
85 65 85 13 0 23 -6 23 -14z"/>
<path d="M1136 843 c-5 -11 -1 -22 9 -29 14 -11 14 -18 -1 -85 -11 -50 -24
-81 -40 -97 -13 -13 -24 -27 -24 -32 0 -6 32 -10 70 -10 56 0 72 3 77 16 4 10
-1 20 -11 26 -18 10 -13 47 8 60 27 18 56 -43 32 -68 -28 -27 -18 -34 54 -34
56 0 72 3 77 16 4 10 -2 23 -14 33 -11 9 -32 36 -47 62 l-26 45 42 32 c23 18
47 32 54 32 12 0 34 29 34 44 0 3 -31 6 -70 6 -60 0 -70 -3 -71 -17 -1 -10 -2
-23 -3 -30 0 -6 -13 -21 -28 -33 -25 -19 -28 -19 -28 -4 0 9 11 27 25 40 39
36 32 44 -44 44 -56 0 -70 -3 -75 -17z"/>
</g>
</svg>
